<svg id="logo" xmlns="http://www.w3.org/2000/svg" xmlns:xlink="http://www.w3.org/1999/xlink" viewBox="0 0 809.03 597.96"><defs><style>.cls-1{fill:none;}.cls-2{clip-path:url(#clip-path);}.cls-3{stroke:#000;stroke-miterlimit:10;}.cls-4{clip-path:url(#clip-path-2);}.cls-5{clip-path:url(#clip-path-3);}</style><clipPath id="clip-path" transform="translate(-6790.49 -6919.53)"><rect class="cls-1" x="6686.5" y="6961.66" width="281.86" height="450.98"/></clipPath><clipPath id="clip-path-2" transform="translate(-6790.49 -6919.53)"><rect id="SVGID" class="cls-1" x="7421.64" y="7016.67" width="281.86" height="362.4" transform="translate(15125.14 14395.74) rotate(-180)"/></clipPath><clipPath id="clip-path-3" transform="translate(-6790.49 -6919.53)"><rect class="cls-1" x="7097.22" y="6952.25" width="297.97" height="442.93"/></clipPath></defs><g class="cls-2"><rect class="cls-3" x="6776.23" y="7098.42" width="257.7" height="64.43" transform="translate(-9810.15 51.61) rotate(-45)"/><rect class="cls-3" x="6872.87" y="7138.69" width="64.43" height="257.7" transform="translate(-9906.96 91.71) rotate(-45)"/></g><g class="cls-4"><rect class="cls-3" x="7452.7" y="7000.42" width="64.43" height="257.7" transform="translate(-9639.36 461.22) rotate(-45)"/><rect class="cls-3" x="7356.07" y="7233.97" width="257.7" height="64.43" transform="translate(-9736.17 501.32) rotate(-45)"/></g><rect class="cls-3" x="202.04" y="101.61" width="64.43" height="357.92"/><rect class="cls-3" x="379.21" y="101.61" width="64.43" height="357.92"/><rect class="cls-3" x="7081.85" y="7017.72" width="64.43" height="367.57" transform="translate(-9323.41 -2785.15) rotate(-27.71)"/><g class="cls-5"><rect class="cls-3" x="7334.45" y="7123.26" width="64.43" height="357.92" transform="translate(-9796.29 428.26) rotate(-45)"/><rect class="cls-3" x="7333.77" y="6916.64" width="64.43" height="357.92" transform="translate(384.31 -10049.82) rotate(45)"/></g><rect class="cls-3" x="379.21" y="0.5" width="64.43" height="64.43"/><rect class="cls-3" x="379.21" y="483.7" width="64.43" height="64.43"/><polygon class="cls-3" points="379.21 596.44 403.37 540.07 443.64 548.12 379.21 596.44"/></svg>